<svg width="13.000000" height="13.000000" viewBox="0 0 13 13" fill="none" xmlns="http://www.w3.org/2000/svg" xmlns:xlink="http://www.w3.org/1999/xlink">
	<path id="Vector" d="M12.17 10.02C12.13 9.73 11.96 9.48 11.7 9.33L8.69 7.6C8.33 7.39 7.86 7.45 7.56 7.75L6.96 8.34C6.81 8.5 6.56 8.51 6.38 8.37C5.91 8 5.46 7.59 5.01 7.15C4.58 6.71 4.16 6.25 3.78 5.78C3.65 5.61 3.66 5.36 3.82 5.2L4.41 4.61C4.71 4.31 4.77 3.84 4.56 3.47L2.83 0.47C2.68 0.21 2.43 0.04 2.13 0C1.84 -0.04 1.55 0.06 1.34 0.27L0.45 1.16C-0.17 1.79 -0.18 2.92 0.42 4.37C1 5.76 2.09 7.29 3.48 8.68C4.87 10.07 6.4 11.15 7.79 11.73C8.51 12.03 9.15 12.18 9.68 12.18C10.24 12.18 10.69 12.02 11.01 11.7L11.9 10.81C12.11 10.6 12.21 10.32 12.17 10.02ZM8.5 7.94L11.5 9.67C11.66 9.76 11.75 9.9 11.77 10.07C11.79 10.22 11.76 10.36 11.67 10.47L7.67 8.19L7.83 8.03C8.01 7.85 8.28 7.82 8.5 7.94ZM2.08 0.39C2.25 0.42 2.4 0.52 2.49 0.66L4.22 3.67C4.34 3.88 4.31 4.15 4.13 4.33L3.98 4.48L1.69 0.5C1.78 0.43 1.89 0.39 2.01 0.39C2.03 0.39 2.06 0.39 2.08 0.39ZM10.73 11.43C10.23 11.92 9.22 11.9 7.95 11.37C6.6 10.81 5.11 9.75 3.76 8.4C2.41 7.05 1.35 5.56 0.79 4.22C0.25 2.95 0.24 1.94 0.73 1.44L1.39 0.78L3.69 4.77L3.54 4.92C3.24 5.22 3.21 5.7 3.48 6.03C3.86 6.51 4.29 6.98 4.74 7.42C5.19 7.87 5.66 8.3 6.14 8.68C6.47 8.95 6.94 8.92 7.24 8.62L7.38 8.48L11.39 10.76L10.73 11.43Z" fill="#FFFFFF" fill-opacity="1.000000" fill-rule="nonzero"/>
</svg>
