<svg width="68.000000" height="68.000000" viewBox="0 0 68 68" fill="none" xmlns="http://www.w3.org/2000/svg" xmlns:xlink="http://www.w3.org/1999/xlink">
	<ellipse id="Ellipse" cx="34.000000" cy="34.000000" rx="33.999290" ry="34.000000" fill="#15A9CB" fill-opacity="1.000000"/>
	<path id="Logo" d="M27.94 36.09C27.85 36.04 27.75 36.01 27.63 36.01C27.38 36.01 27.15 36.13 26.95 36.36C26.33 37.08 25.67 37.61 24.96 37.95C24.27 38.26 23.44 38.42 22.47 38.42C22.09 38.42 21.64 38.37 21.14 38.27C20.63 38.17 19.91 38 18.97 37.77Q16.56 37.16 14.95 36.89C15.08 36.3 15.19 35.61 15.28 34.8L15.85 29.09C16.07 27.03 16.58 25.52 17.39 24.56Q17.74 24.14 18.18 23.83Q19.24 23.1 20.81 23.1Q22.07 23.1 22.67 23.73L22.67 23.73C23.09 24.13 23.3 24.69 23.3 25.39C23.3 25.76 23.25 26.18 23.15 26.65C23.08 27.05 23.05 27.33 23.05 27.48C23.05 27.9 23.18 28.22 23.45 28.46C23.72 28.68 24.09 28.79 24.56 28.79Q24.95 28.79 25.28 28.64Q25.76 28.41 26.09 27.86C26.46 27.22 26.65 26.39 26.65 25.37Q26.65 23.83 25.98 22.69Q25.66 22.15 25.19 21.69C24.22 20.75 22.82 20.28 21.01 20.28Q19.45 20.28 18.04 20.75Q17.95 20.78 17.87 20.81C16.88 21.15 16 21.65 15.23 22.32Q14.71 22.77 14.28 23.29Q13.6 24.11 13.14 25.11C12.63 26.2 12.33 27.59 12.23 29.26L11.78 36.59L11.45 36.59C10.14 36.59 9.09 36.86 8.31 37.42C7.52 37.95 7.12 38.63 7.12 39.45Q7.12 39.87 7.27 40.23Q7.48 40.73 7.98 41.12Q8.81 41.74 10.22 41.74Q11.4 41.74 12.32 41.24Q13.38 40.66 14.07 39.4C14.96 39.67 15.88 40.02 16.84 40.44C17.89 40.87 18.79 41.2 19.53 41.42C20.27 41.64 21.07 41.74 21.94 41.74Q23.8 41.74 25.11 41.06C26 40.61 26.92 39.82 27.86 38.7C27.98 38.55 28.08 38.38 28.16 38.18C28.24 38.49 28.35 38.79 28.48 39.08C28.85 39.88 29.39 40.53 30.09 41.01Q30.2 41.09 30.31 41.15Q31.32 41.74 32.68 41.74C33.88 41.74 34.94 41.32 35.88 40.49C36.82 39.63 37.45 38.5 37.77 37.09C38.32 37.07 38.85 37.01 39.36 36.93C39.34 37.16 39.33 37.4 39.33 37.64C39.33 38.87 39.64 39.86 40.26 40.61C40.88 41.37 41.71 41.74 42.75 41.74C43.21 41.74 43.66 41.63 44.11 41.39C44.58 41.14 44.96 40.79 45.24 40.34L45.09 41.32Q41.22 44.31 39.81 46.35C38.87 47.72 38.4 49.01 38.4 50.2C38.4 51.05 38.67 51.74 39.21 52.26C39.74 52.8 40.44 53.07 41.29 53.07Q41.8 53.07 42.26 52.93Q44.01 52.43 45.22 50.07C46.26 48.09 47.1 45.37 47.73 41.9L49.34 40.81C49.91 40.42 50.75 39.84 51.86 39.09Q52.19 39.81 52.69 40.36Q53.01 40.72 53.41 41.01Q53.53 41.1 53.65 41.17Q54.63 41.74 55.95 41.74C56.96 41.74 57.87 41.47 58.69 40.91C59.53 40.34 60.19 39.56 60.68 38.57Q61.41 37.06 61.41 35.15Q61.41 34.07 61.08 33.09Q60.99 32.82 60.88 32.56C60.53 31.76 60 31.11 59.3 30.62C58.59 30.12 57.74 29.87 56.75 29.87C55.73 29.87 54.81 30.15 53.99 30.72C53.17 31.28 52.51 32.06 52.02 33.06C51.55 34.05 51.32 35.19 51.32 36.46C51.32 36.53 51.32 36.61 51.32 36.68Q49.83 37.68 48.24 38.93C48.32 38.39 48.4 37.89 48.46 37.42C48.55 36.93 48.62 36.49 48.69 36.08C49.04 33.97 49.25 32.65 49.32 32.13C49.34 32.02 49.34 31.86 49.34 31.66C49.34 31.29 49.25 31.04 49.07 30.93Q48.82 30.72 48.19 30.72C47.77 30.72 47.4 30.76 47.08 30.82C47 30.46 46.89 30.2 46.75 30.07C46.64 29.92 46.39 29.84 46.02 29.84C44.87 29.84 43.77 30.21 42.73 30.95C41.7 31.67 40.88 32.64 40.26 33.84C40.22 33.93 40.17 34.02 40.13 34.11C39.31 34.29 38.59 34.41 37.97 34.45C37.83 33.16 37.37 32.07 36.58 31.2C35.81 30.31 34.79 29.87 33.51 29.87C32.47 29.87 31.53 30.15 30.67 30.72C29.82 31.28 29.15 32.06 28.66 33.06C28.22 33.96 27.98 34.97 27.94 36.09ZM44.77 38.5C44.41 38.97 44.04 39.2 43.66 39.2Q43.3 39.2 43.04 39.04Q42.89 38.96 42.78 38.83C42.58 38.57 42.48 38.19 42.48 37.67Q42.48 36.68 42.74 35.76Q42.85 35.37 43 35C43.36 34.16 43.83 33.49 44.41 32.99C45 32.47 45.64 32.2 46.33 32.18L45.52 36.49C45.37 37.36 45.12 38.03 44.77 38.5ZM34.27 38.42C33.88 38.86 33.42 39.08 32.89 39.08C32.4 39.08 31.97 38.83 31.6 38.35C31.25 37.86 31.07 37.16 31.07 36.23C31.07 35.06 31.29 34.15 31.73 33.52C32.18 32.86 32.74 32.54 33.41 32.54L33.54 32.54C33.49 32.8 33.46 33.07 33.46 33.34C33.46 33.98 33.6 34.58 33.87 35.15C34.15 35.72 34.55 36.18 35.07 36.54C34.94 37.36 34.67 37.99 34.27 38.42ZM57.66 38.1C57.27 38.72 56.8 39.03 56.23 39.03C55.72 39.03 55.3 38.8 54.97 38.35C54.63 37.89 54.47 37.19 54.47 36.23C54.47 35.03 54.66 34.12 55.04 33.52Q55.48 32.85 56.06 32.66Q56.29 32.59 56.55 32.59C57.02 32.59 57.43 32.82 57.76 33.29C58.1 33.76 58.26 34.46 58.26 35.38C58.26 36.57 58.06 37.48 57.66 38.1ZM42.98 49.12C42.46 50.12 41.99 50.63 41.57 50.63C41.32 50.63 41.13 50.53 41.02 50.35C40.92 50.16 40.87 49.93 40.87 49.64C40.87 48.97 41.15 48.19 41.72 47.3C42.29 46.42 43.22 45.42 44.51 44.31C44.03 46.51 43.52 48.11 42.98 49.12Z" fill="#FFFFFF" fill-opacity="1.000000" fill-rule="evenodd"/>
</svg>
