<svg width="68.000000" height="68.000000" viewBox="0 0 68 68" fill="none" xmlns="http://www.w3.org/2000/svg" xmlns:xlink="http://www.w3.org/1999/xlink">
	<ellipse id="Ellipse" cx="34.000000" cy="34.000000" rx="33.999290" ry="34.000000" fill="#15A9CB" fill-opacity="1.000000"/>
	<path id="Logo" d="M21.09 32.83L10.37 32.83L10.37 14.54L12.58 14.54L12.58 30.87L21.09 30.87L21.09 32.83ZM36.03 26.05C36.03 30.3 33.53 33.12 29.81 33.12C26.1 33.12 23.59 30.3 23.59 26.05C23.59 21.75 26.1 18.93 29.81 18.93C33.53 18.93 36.03 21.75 36.03 26.05ZM50.72 33.23C50.72 36.77 48.07 38.26 44.79 38.26C41.72 38.26 40.03 36.96 39.18 35.51L40.86 34.33C41.42 35.1 42.29 36.41 44.79 36.41C47 36.41 48.61 35.37 48.61 33.09L48.61 30.3L48.43 30.3C47.97 31.05 47.11 32.62 44.43 32.62C41.11 32.62 38.6 30.19 38.6 25.9C38.6 21.69 41 18.93 44.47 18.93C47.15 18.93 48.01 20.57 48.47 21.29L48.68 21.29L48.68 19.11L50.72 19.11L50.72 33.23ZM25.7 26.05C25.7 28.8 26.99 31.23 29.81 31.23C32.63 31.23 33.92 28.8 33.92 26.05C33.92 23.3 32.63 20.83 29.81 20.83C26.99 20.83 25.7 23.3 25.7 26.05ZM40.71 25.86C40.71 28.73 42.07 30.73 44.71 30.73C47.25 30.73 48.64 28.9 48.64 25.86C48.64 22.9 47.29 20.83 44.71 20.83C42.04 20.83 40.71 23.08 40.71 25.86ZM21.88 56.05C21.88 60.3 19.38 63.12 15.66 63.12C11.95 63.12 9.44 60.3 9.44 56.05C9.44 51.75 11.95 48.93 15.66 48.93C19.38 48.93 21.88 51.75 21.88 56.05ZM11.55 56.05C11.55 58.8 12.84 61.23 15.66 61.23C18.48 61.23 19.77 58.8 19.77 56.05C19.77 53.3 18.48 50.83 15.66 50.83C12.84 50.83 11.55 53.3 11.55 56.05Z" fill="#FFFFFF" fill-opacity="1.000000" fill-rule="evenodd"/>
</svg>
